<svg xmlns="http://www.w3.org/2000/svg" width="50" height="49.99" viewBox="0 0 50 49.99"><g transform="translate(1 3.99)"><path d="M28.813.031l-28,5.313a1.017,1.017,0,0,0-.812,1V43.656a1.018,1.018,0,0,0,.813,1l28,5.313A1.046,1.046,0,0,0,29,50a.961.961,0,0,0,.625-.219A1.035,1.035,0,0,0,30,49V1a1.035,1.035,0,0,0-.375-.781A.961.961,0,0,0,28.813.031ZM32,11V23.156l1.75,1.438L49,15.5V12a1,1,0,0,0-1-1ZM14.844,15.531a7.28,7.28,0,0,1,5.781,2.563,9.9,9.9,0,0,1,2.188,6.719,10.215,10.215,0,0,1-2.281,6.938,7.5,7.5,0,0,1-5.937,2.656A7.46,7.46,0,0,1,8.75,31.844,9.682,9.682,0,0,1,6.5,25.188a10.378,10.378,0,0,1,2.281-7A7.572,7.572,0,0,1,14.844,15.531ZM49,17.844,34.188,26.688a1.064,1.064,0,0,1-.531.125.955.955,0,0,1-.625-.219L32,25.75V38h2.063A7.675,7.675,0,0,0,34,39a8,8,0,1,0,14.969-3.906c0-.035.031-.059.031-.094ZM14.75,19.063a3.7,3.7,0,0,0-3.156,1.625,7.16,7.16,0,0,0-1.156,4.281,7.184,7.184,0,0,0,1.156,4.313,3.629,3.629,0,0,0,3.063,1.563,3.615,3.615,0,0,0,3.063-1.531,6.991,6.991,0,0,0,1.156-4.25,7.571,7.571,0,0,0-1.094-4.406A3.523,3.523,0,0,0,14.75,19.063ZM42,33a6,6,0,1,1-6,6A6.007,6.007,0,0,1,42,33Zm-1,1v7h5V39H43V34Zm0,0" transform="translate(-1 -4)" fill="#ccc"/></g></svg>