<svg xmlns="http://www.w3.org/2000/svg" width="39" height="45" viewBox="0 0 39 45"><g transform="translate(-5 -2)"><path d="M24.5,45.16,7,34.82V14.18L24.5,3.84,42,14.18V34.82ZM9,33.68l15.5,9.16L40,33.68V15.32L24.5,6.16,9,15.32Zm0,0" fill="#ccc"/><path d="M28,5.5A3.5,3.5,0,1,1,24.5,2,3.5,3.5,0,0,1,28,5.5Zm0,0" fill="#ccc"/><path d="M28,43.5A3.5,3.5,0,1,1,24.5,40,3.5,3.5,0,0,1,28,43.5Zm0,0" fill="#ccc"/><path d="M12,33.5A3.5,3.5,0,1,1,8.5,30,3.5,3.5,0,0,1,12,33.5Zm0,0" fill="#ccc"/><path d="M44,33.5A3.5,3.5,0,1,1,40.5,30,3.5,3.5,0,0,1,44,33.5Zm0,0" fill="#ccc"/><path d="M12,15.5A3.5,3.5,0,1,1,8.5,12,3.5,3.5,0,0,1,12,15.5Zm0,0" fill="#ccc"/><path d="M44,15.5A3.5,3.5,0,1,1,40.5,12,3.5,3.5,0,0,1,44,15.5Zm0,0" fill="#ccc"/><path d="M42.719,35H6.281L24.5,2.977Zm-33-2H39.281L24.5,7.023Zm0,0" fill="#ccc"/></g></svg>