<svg xmlns="http://www.w3.org/2000/svg" width="40" height="45" viewBox="0 0 40 45"><g transform="translate(-8 -6)"><path d="M27.99,6a3.422,3.422,0,0,0-1.742.466l-16.517,9.9A3.665,3.665,0,0,0,8,19.5V37.465A3.644,3.644,0,0,0,9.732,40.6l4.336,2.6a6.865,6.865,0,0,0,3.8,1.072c3.115,0,4.9-1.954,4.9-5.348V20.384a.493.493,0,0,0-.482-.5H20.2a.486.486,0,0,0-.485.5V38.9c0,1.525-1.514,3.012-3.965,1.748l-4.535-2.718a.532.532,0,0,1-.267-.466V19.518a.565.565,0,0,1,.267-.487l16.517-9.9a.465.465,0,0,1,.518,0l16.517,9.9a.558.558,0,0,1,.267.47V37.465a.553.553,0,0,1-.251.466L28.251,47.849a.541.541,0,0,1-.518,0l-4.251-2.613a.371.371,0,0,0-.4-.034,11.073,11.073,0,0,1-2.5,1.176c-.267.088-.684.26.15.744l5.514,3.394a3.379,3.379,0,0,0,3.483,0L46.268,40.6A3.644,3.644,0,0,0,48,37.465V19.518a3.644,3.644,0,0,0-1.732-3.134L29.732,6.466A3.422,3.422,0,0,0,27.99,6Zm4.443,13.856c-4.717,0-7.532,2.076-7.532,5.537,0,3.756,2.8,4.793,7.331,5.26,5.417.554,5.833,1.386,5.833,2.495,0,1.9-1.481,2.718-4.964,2.718-4.385,0-5.352-1.143-5.667-3.394a.47.47,0,0,0-.466-.416H24.816a.476.476,0,0,0-.465.487c0,2.89,1.517,6.332,8.75,6.332,5.234,0,8.232-2.143,8.232-5.882,0-3.7-2.419-4.692-7.484-5.4-5.15-.693-5.667-1.055-5.667-2.3,0-1.038.452-2.4,4.251-2.4,3.382,0,4.648.761,5.166,3.13a.483.483,0,0,0,.465.4h2.152a.484.484,0,0,0,.348-.172.477.477,0,0,0,.117-.382C40.35,21.776,37.733,19.856,32.434,19.856Zm0,0" transform="translate(0 0)" fill="#ccc"/></g></svg>