<svg xmlns="http://www.w3.org/2000/svg" width="40" height="56.768" viewBox="0 0 40 56.768"><g transform="translate(-10 -2)"><path d="M20.625,2A10.467,10.467,0,0,0,10,12.267a10.176,10.176,0,0,0,5.884,9.059A10.176,10.176,0,0,0,10,30.384a10.176,10.176,0,0,0,5.884,9.059A10.176,10.176,0,0,0,10,48.5,10.467,10.467,0,0,0,20.625,58.768,10.467,10.467,0,0,0,31.25,48.5V35.4A9.957,9.957,0,0,0,40,40.651a9.855,9.855,0,0,0,10-9.663,9.62,9.62,0,0,0-7.232-9.12A10.232,10.232,0,0,0,50,12.267,10.467,10.467,0,0,0,39.375,2Zm0,2.416H28.75v15.7H20.625A7.973,7.973,0,0,1,12.5,12.267,7.973,7.973,0,0,1,20.625,4.416Zm10.625,0h8.125A7.973,7.973,0,0,1,47.5,12.267a7.973,7.973,0,0,1-8.125,7.851H31.25ZM20.625,22.533H28.75v15.7H20.625a7.856,7.856,0,1,1,0-15.7Zm10.625,0h4.18a9.812,9.812,0,0,0-4.18,4.039ZM40,23.741a7.251,7.251,0,1,1-7.5,7.247A7.36,7.36,0,0,1,40,23.741ZM20.625,40.651H28.75V48.5a7.973,7.973,0,0,1-8.125,7.851,7.856,7.856,0,1,1,0-15.7Zm0,0" fill="#ccc"/></g></svg>