<svg xmlns="http://www.w3.org/2000/svg" width="40" height="33" viewBox="0 0 40 33"><g transform="translate(0 -9)"><path d="M16,9v5H8v5H4v5H.9a.852.852,0,0,0-.775.813A14.589,14.589,0,0,0,0,26.75a17.8,17.8,0,0,0,.15,2.219c.916-.274,2.594-.684,2.3-2.031,1.578,2.285,5.365,1.594,6.324.469,1.072,1.941,7.315,1.2,7.749-.312,1.344,1.969,5.509,1.969,6.849,0,.434,1.512,6.653,2.254,7.724.313a3.542,3.542,0,0,0,1.875.906c.278-.66.534-1.324.775-2.031a6.379,6.379,0,0,0,6.224-4.844,1.14,1.14,0,0,0-.275-1.031,5.506,5.506,0,0,0-5-1.344,9.1,9.1,0,0,0-3.15-5.125.669.669,0,0,0-.9.094c-.081.082-1.972,2.086-1.675,6.188a8.811,8.811,0,0,0,.625,2.75A6.073,6.073,0,0,1,26,24h-.4V19h-4V9ZM32.972,28.313c-.1.234-.222.461-.325.688h7.224c-.869-.273-2.734-.641-2.425-2.062A4.272,4.272,0,0,1,32.972,28.313ZM32.647,29H.15a18.485,18.485,0,0,0,1.2,4.5c4.343,1.277,8.9-.668,8.949-.687.419-.184.856.105,1,.625a1.082,1.082,0,0,1-.475,1.281A17.473,17.473,0,0,1,4.55,35.938a13.578,13.578,0,0,1-2.075-.156A12.393,12.393,0,0,0,13.6,42C22.242,42,28.888,37.41,32.647,29ZM.15,29c0-.016,0-.016,0-.031-.053.016-.1.016-.15.031ZM17.6,11H20v3H17.6Zm-8,5H12v3H9.6Zm4,0H16v3H13.6Zm4,0H20v3H17.6Zm-12,5H8v3H5.6Zm4,0H12v3H9.6Zm4,0H16v3H13.6Zm4,0H20v3H17.6Zm4,0H24v3H21.6ZM12.8,31a.709.709,0,0,1,.3.063.423.423,0,0,0-.175.344c0,.226.144.438.325.438a.355.355,0,0,0,.3-.219A1.12,1.12,0,0,1,13.6,32a.919.919,0,0,1-.8,1,1.025,1.025,0,0,1,0-2Zm0,0" fill="#ccc"/></g></svg>