<svg xmlns="http://www.w3.org/2000/svg" width="46" height="46" viewBox="0 0 46 46"><g transform="translate(-2 -2)"><path d="M46.793,22.09,27.91,3.207a4.112,4.112,0,0,0-5.82,0L18.355,6.941l4.621,4.621a3.982,3.982,0,0,1,5.457,5.457l4.543,4.543a4,4,0,1,1-1.414,1.414L27.02,18.434a3.857,3.857,0,0,1-1.02.422V31.141a4,4,0,1,1-2,0V18.855a3.953,3.953,0,0,1-2.434-5.875L16.941,8.355,3.207,22.09a4.112,4.112,0,0,0,0,5.82L22.09,46.793a4.112,4.112,0,0,0,5.82,0L46.793,27.91A4.112,4.112,0,0,0,46.793,22.09Zm0,0" fill="#ccc"/></g></svg>